<svg width="28" height="31" viewBox="0 0 28 31" fill="none" xmlns="http://www.w3.org/2000/svg">
<path d="M13.4813 0.0006706C12.5816 0.00582718 11.6792 0.0599676 10.7691 0.170827C9.02892 0.384811 7.30415 0.740593 5.64899 1.50114C3.01673 2.71028 1.15017 4.76247 0.608761 7.74536C0.379308 9.00348 0.193683 10.2797 0.0879798 11.5636C-0.115692 14.0566 0.0106357 16.5574 0.717042 19.0143C1.27392 20.9505 2.30001 22.6908 4.09696 23.82C4.59221 24.1306 5.19022 24.3373 5.69167 24.5106C5.96029 24.6035 6.2012 24.6868 6.38376 24.7713C6.53071 24.8409 6.56681 24.8822 6.57454 24.8925L6.57491 24.8928C6.58291 24.9008 6.60286 24.9207 6.60032 25.0729C6.58228 26.6508 6.60032 29.7033 6.60032 29.7033L6.6029 30.3607H7.7811L7.97188 30.1751C7.97188 30.1751 10.9651 27.2953 12.0479 26.1093C12.1311 26.0196 12.1971 25.9465 12.2471 25.8912C12.3148 25.8163 12.3531 25.7739 12.365 25.7665C12.3679 25.7644 12.3695 25.7625 12.3711 25.7607C12.3791 25.7512 12.3843 25.745 12.5532 25.7407C13.9738 25.7123 15.3917 25.6582 16.8097 25.5808C18.6788 25.4777 20.5841 25.2998 22.4171 24.5341C24.013 23.8664 25.3459 22.7758 26.1528 21.1413C26.9778 19.4655 27.4187 17.6892 27.5837 15.851C27.857 12.7908 27.7616 9.72536 26.9159 6.7038C26.4184 4.93262 25.4181 3.43473 23.8841 2.3777C22.0484 1.11442 19.9782 0.640046 17.9518 0.338405C16.7684 0.163093 15.5774 0.0470772 14.3811 0.0109831C14.082 0.00324856 13.783 -0.00190736 13.4813 0.0006706ZM14.345 1.33098C15.482 1.36192 16.6189 1.47278 17.7584 1.64294C19.7127 1.93427 21.556 2.3777 23.1364 3.46567C24.4177 4.34739 25.217 5.53848 25.6449 7.057C26.4338 9.88263 26.5344 12.7779 26.2688 15.735C26.1167 17.4391 25.712 19.0453 24.9669 20.5586C24.3095 21.8941 23.2834 22.7423 21.9066 23.3172C20.3082 23.985 18.5706 24.1629 16.7401 24.2634C15.3376 24.3408 13.9325 24.3923 12.5274 24.4207C12.1742 24.4284 11.8288 24.5212 11.5838 24.7017C11.4028 24.8351 11.295 24.9614 11.1897 25.0849C11.1525 25.1285 11.1156 25.1717 11.0759 25.2147C10.3488 26.0097 8.94265 27.3721 8.07851 28.2093C8.02348 28.2627 7.97064 28.3139 7.92032 28.3626C7.91997 28.2953 7.91961 28.227 7.91924 28.1578C7.91421 27.2153 7.90831 26.1116 7.92032 25.0884C7.92548 24.7507 7.84813 24.4052 7.65478 24.1319C7.46142 23.8586 7.19587 23.6936 6.94064 23.5751C6.60569 23.4197 6.22437 23.2811 5.86765 23.1514C5.43086 22.9926 5.03095 22.8472 4.79821 22.7011C3.32095 21.7729 2.48306 20.3808 1.98548 18.6483C1.33321 16.3821 1.20946 14.0489 1.40282 11.6744C1.50595 10.4421 1.68384 9.20716 1.90814 7.98255C2.37735 5.40184 3.85204 3.77762 6.19814 2.69997C7.68056 2.01934 9.26353 1.68419 10.9316 1.48052C12.0685 1.3413 13.2055 1.29747 14.345 1.33098ZM14.6234 4.62067C14.0795 4.62067 13.5509 4.68255 13.0379 4.79598C12.6847 4.87848 12.4604 5.23169 12.5403 5.58747C12.6202 5.94325 12.976 6.16497 13.3318 6.08505C13.7469 5.98966 14.18 5.94067 14.6234 5.94067C17.8461 5.94067 20.4449 8.53942 20.4449 11.7595C20.4449 12.2055 20.3959 12.6386 20.3005 13.0563C20.2206 13.4095 20.4423 13.7653 20.7981 13.8452C21.1538 13.9251 21.507 13.7008 21.587 13.345C21.703 12.8346 21.7649 12.3061 21.7649 11.7595C21.7649 7.82528 18.5602 4.62067 14.6234 4.62067ZM8.03892 5.94325C7.93063 5.93809 7.81978 5.94583 7.70376 5.97161C6.50493 6.23716 5.31384 7.10598 5.28032 8.65802C5.29052 8.72389 5.29737 8.79119 5.30422 8.85847C5.3199 9.01239 5.33557 9.16621 5.39118 9.30255C5.49282 9.55129 5.59099 9.80212 5.6892 10.053C5.96965 10.7696 6.25042 11.487 6.61321 12.1591C8.99798 16.5677 12.6048 19.6331 17.2016 21.5796C17.7507 21.8116 18.3179 21.8606 18.8722 21.6286C19.6353 21.3115 20.2824 20.8216 20.713 20.1178C21.3034 19.151 21.3111 18.4807 20.3391 17.7665C20.1102 17.5978 19.8826 17.4275 19.655 17.2571C19.2495 16.9536 18.8441 16.6502 18.4313 16.3563C17.4491 15.6602 16.3869 15.539 15.6547 16.7611C15.6244 16.8096 15.5829 16.8518 15.5428 16.8926C15.5318 16.9039 15.5209 16.915 15.5103 16.9261C15.1339 17.3257 14.6724 17.4236 14.1826 17.2225C12.3238 16.4568 10.8877 15.2219 10.0215 13.3837C9.51103 12.3035 9.65024 11.7621 10.6041 11.0428C10.6995 10.9732 10.7898 10.8984 10.8774 10.8185C11.2951 10.4369 11.4059 9.98317 11.1584 9.47013C10.599 8.29966 9.85392 7.25552 8.91032 6.35575C8.65509 6.11341 8.36376 5.9613 8.03892 5.94325ZM14.6131 6.60067C14.3218 6.60067 14.0331 6.62387 13.7495 6.67286C13.5097 6.7038 13.306 6.86364 13.2184 7.08794C13.1307 7.31481 13.1745 7.57005 13.3292 7.75567C13.4865 7.93872 13.734 8.0238 13.9712 7.97223C14.1774 7.93872 14.394 7.92067 14.6131 7.92067C16.7581 7.92067 18.4803 9.64286 18.4803 11.7879C18.4803 12.007 18.4623 12.2236 18.4288 12.4298C18.3772 12.667 18.4623 12.9145 18.6453 13.0718C18.8309 13.2265 19.0862 13.2703 19.3131 13.1826C19.5374 13.095 19.6972 12.8913 19.7281 12.6515C19.7771 12.3679 19.8003 12.0792 19.8003 11.7879C19.8003 8.9313 17.4697 6.60067 14.6131 6.60067ZM14.5203 8.58067C14.2831 8.57809 14.0614 8.70184 13.9402 8.90809C13.8216 9.11434 13.8216 9.367 13.9402 9.57325C14.0614 9.7795 14.2831 9.90325 14.5203 9.90067C15.6212 9.90067 16.5003 10.7798 16.5003 11.8807C16.4977 12.1179 16.6215 12.3396 16.8277 12.4608C17.034 12.5793 17.2866 12.5793 17.4929 12.4608C17.6992 12.3396 17.8229 12.1179 17.8203 11.8807C17.8203 10.0657 16.3353 8.58067 14.5203 8.58067Z" fill="#AFFFA8"/>
<path d="M13.4813 0.0006706C12.5816 0.00582718 11.6792 0.0599676 10.7691 0.170827C9.02892 0.384811 7.30415 0.740593 5.64899 1.50114C3.01673 2.71028 1.15017 4.76247 0.608761 7.74536C0.379308 9.00348 0.193683 10.2797 0.0879798 11.5636C-0.115692 14.0566 0.0106357 16.5574 0.717042 19.0143C1.27392 20.9505 2.30001 22.6908 4.09696 23.82C4.59221 24.1306 5.19022 24.3373 5.69167 24.5106C5.96029 24.6035 6.2012 24.6868 6.38376 24.7713C6.53071 24.8409 6.56681 24.8822 6.57454 24.8925L6.57491 24.8928C6.58291 24.9008 6.60286 24.9207 6.60032 25.0729C6.58228 26.6508 6.60032 29.7033 6.60032 29.7033L6.6029 30.3607H7.7811L7.97188 30.1751C7.97188 30.1751 10.9651 27.2953 12.0479 26.1093C12.1311 26.0196 12.1971 25.9465 12.2471 25.8912C12.3148 25.8163 12.3531 25.7739 12.365 25.7665C12.3679 25.7644 12.3695 25.7625 12.3711 25.7607C12.3791 25.7512 12.3843 25.745 12.5532 25.7407C13.9738 25.7123 15.3917 25.6582 16.8097 25.5808C18.6788 25.4777 20.5841 25.2998 22.4171 24.5341C24.013 23.8664 25.3459 22.7758 26.1528 21.1413C26.9778 19.4655 27.4187 17.6892 27.5837 15.851C27.857 12.7908 27.7616 9.72536 26.9159 6.7038C26.4184 4.93262 25.4181 3.43473 23.8841 2.3777C22.0484 1.11442 19.9782 0.640046 17.9518 0.338405C16.7684 0.163093 15.5774 0.0470772 14.3811 0.0109831C14.082 0.00324856 13.783 -0.00190736 13.4813 0.0006706ZM14.345 1.33098C15.482 1.36192 16.6189 1.47278 17.7584 1.64294C19.7127 1.93427 21.556 2.3777 23.1364 3.46567C24.4177 4.34739 25.217 5.53848 25.6449 7.057C26.4338 9.88263 26.5344 12.7779 26.2688 15.735C26.1167 17.4391 25.712 19.0453 24.9669 20.5586C24.3095 21.8941 23.2834 22.7423 21.9066 23.3172C20.3082 23.985 18.5706 24.1629 16.7401 24.2634C15.3376 24.3408 13.9325 24.3923 12.5274 24.4207C12.1742 24.4284 11.8288 24.5212 11.5838 24.7017C11.4028 24.8351 11.295 24.9614 11.1897 25.0849C11.1525 25.1285 11.1156 25.1717 11.0759 25.2147C10.3488 26.0097 8.94265 27.3721 8.07851 28.2093C8.02348 28.2627 7.97064 28.3139 7.92032 28.3626C7.91997 28.2953 7.91961 28.227 7.91924 28.1578C7.91421 27.2153 7.90831 26.1116 7.92032 25.0884C7.92548 24.7507 7.84813 24.4052 7.65478 24.1319C7.46142 23.8586 7.19587 23.6936 6.94064 23.5751C6.60569 23.4197 6.22437 23.2811 5.86765 23.1514C5.43086 22.9926 5.03095 22.8472 4.79821 22.7011C3.32095 21.7729 2.48306 20.3808 1.98548 18.6483C1.33321 16.3821 1.20946 14.0489 1.40282 11.6744C1.50595 10.4421 1.68384 9.20716 1.90814 7.98255C2.37735 5.40184 3.85204 3.77762 6.19814 2.69997C7.68056 2.01934 9.26353 1.68419 10.9316 1.48052C12.0685 1.3413 13.2055 1.29747 14.345 1.33098ZM14.6234 4.62067C14.0795 4.62067 13.5509 4.68255 13.0379 4.79598C12.6847 4.87848 12.4604 5.23169 12.5403 5.58747C12.6202 5.94325 12.976 6.16497 13.3318 6.08505C13.7469 5.98966 14.18 5.94067 14.6234 5.94067C17.8461 5.94067 20.4449 8.53942 20.4449 11.7595C20.4449 12.2055 20.3959 12.6386 20.3005 13.0563C20.2206 13.4095 20.4423 13.7653 20.7981 13.8452C21.1538 13.9251 21.507 13.7008 21.587 13.345C21.703 12.8346 21.7649 12.3061 21.7649 11.7595C21.7649 7.82528 18.5602 4.62067 14.6234 4.62067ZM8.03892 5.94325C7.93063 5.93809 7.81978 5.94583 7.70376 5.97161C6.50493 6.23716 5.31384 7.10598 5.28032 8.65802C5.29052 8.72389 5.29737 8.79119 5.30422 8.85847C5.3199 9.01239 5.33557 9.16621 5.39118 9.30255C5.49282 9.55129 5.59099 9.80212 5.6892 10.053C5.96965 10.7696 6.25042 11.487 6.61321 12.1591C8.99798 16.5677 12.6048 19.6331 17.2016 21.5796C17.7507 21.8116 18.3179 21.8606 18.8722 21.6286C19.6353 21.3115 20.2824 20.8216 20.713 20.1178C21.3034 19.151 21.3111 18.4807 20.3391 17.7665C20.1102 17.5978 19.8826 17.4275 19.655 17.2571C19.2495 16.9536 18.8441 16.6502 18.4313 16.3563C17.4491 15.6602 16.3869 15.539 15.6547 16.7611C15.6244 16.8096 15.5829 16.8518 15.5428 16.8926C15.5318 16.9039 15.5209 16.915 15.5103 16.9261C15.1339 17.3257 14.6724 17.4236 14.1826 17.2225C12.3238 16.4568 10.8877 15.2219 10.0215 13.3837C9.51103 12.3035 9.65024 11.7621 10.6041 11.0428C10.6995 10.9732 10.7898 10.8984 10.8774 10.8185C11.2951 10.4369 11.4059 9.98317 11.1584 9.47013C10.599 8.29966 9.85392 7.25552 8.91032 6.35575C8.65509 6.11341 8.36376 5.9613 8.03892 5.94325ZM14.6131 6.60067C14.3218 6.60067 14.0331 6.62387 13.7495 6.67286C13.5097 6.7038 13.306 6.86364 13.2184 7.08794C13.1307 7.31481 13.1745 7.57005 13.3292 7.75567C13.4865 7.93872 13.734 8.0238 13.9712 7.97223C14.1774 7.93872 14.394 7.92067 14.6131 7.92067C16.7581 7.92067 18.4803 9.64286 18.4803 11.7879C18.4803 12.007 18.4623 12.2236 18.4288 12.4298C18.3772 12.667 18.4623 12.9145 18.6453 13.0718C18.8309 13.2265 19.0862 13.2703 19.3131 13.1826C19.5374 13.095 19.6972 12.8913 19.7281 12.6515C19.7771 12.3679 19.8003 12.0792 19.8003 11.7879C19.8003 8.9313 17.4697 6.60067 14.6131 6.60067ZM14.5203 8.58067C14.2831 8.57809 14.0614 8.70184 13.9402 8.90809C13.8216 9.11434 13.8216 9.367 13.9402 9.57325C14.0614 9.7795 14.2831 9.90325 14.5203 9.90067C15.6212 9.90067 16.5003 10.7798 16.5003 11.8807C16.4977 12.1179 16.6215 12.3396 16.8277 12.4608C17.034 12.5793 17.2866 12.5793 17.4929 12.4608C17.6992 12.3396 17.8229 12.1179 17.8203 11.8807C17.8203 10.0657 16.3353 8.58067 14.5203 8.58067Z" stroke="#AFFFA8"/>
</svg>
